<svg width="36" height="35" viewBox="0 0 36 35" fill="none" xmlns="http://www.w3.org/2000/svg">
<path d="M34.0723 14.1605C34.1444 12.0731 33.6879 10.0013 32.7452 8.13754C32.1056 7.37279 31.2179 6.8567 30.2368 6.6792C26.1791 6.31101 22.1045 6.1601 18.0306 6.22712C13.9715 6.15706 9.91163 6.3031 5.8681 6.66462C5.06867 6.81004 4.32885 7.18502 3.73893 7.74379C2.42643 8.9542 2.2806 11.025 2.13476 12.775C1.92318 15.9215 1.92318 19.0786 2.13476 22.225C2.17695 23.21 2.32361 24.1877 2.57226 25.1417C2.7481 25.8783 3.10386 26.5597 3.60768 27.125C4.20161 27.7134 4.95866 28.1097 5.7806 28.2625C8.92464 28.6506 12.0926 28.8115 15.2598 28.7438C20.3639 28.8167 24.841 28.7438 30.1348 28.3355C30.9769 28.192 31.7553 27.7952 32.366 27.198C32.7743 26.7895 33.0793 26.2896 33.2556 25.7396C33.7771 24.1393 34.0333 22.4644 34.0139 20.7813C34.0723 19.9646 34.0723 15.0355 34.0723 14.1605ZM14.7348 21.6563V12.6292L23.3681 17.1646C20.9473 18.5063 17.7535 20.023 14.7348 21.6563Z" fill="#032E5A"/>
</svg>
