<svg width="34" height="27" viewBox="0 0 34 27" fill="none" xmlns="http://www.w3.org/2000/svg">
<path d="M29.9054 6.88667C29.9262 7.17924 29.9262 7.47187 29.9262 7.76444C29.9262 16.6882 23.1476 26.9705 10.7583 26.9705C6.94142 26.9705 3.3957 25.8628 0.413086 23.9402C0.955397 24.0028 1.47678 24.0237 2.03995 24.0237C5.18936 24.0237 8.08858 22.9579 10.4037 21.1397C7.442 21.077 4.95997 19.1334 4.1048 16.4583C4.52199 16.521 4.9391 16.5628 5.37715 16.5628C5.98199 16.5628 6.5869 16.4792 7.15001 16.333C4.06314 15.706 1.7479 12.9891 1.7479 9.70802V9.62446C2.64473 10.126 3.68769 10.4395 4.79305 10.4813C2.97845 9.2691 1.78963 7.20015 1.78963 4.85946C1.78963 3.60556 2.12329 2.45612 2.70733 1.45297C6.02366 5.54914 11.0086 8.22414 16.5983 8.51677C16.494 8.0152 16.4314 7.49278 16.4314 6.9703C16.4314 3.25027 19.4349 0.219971 23.1684 0.219971C25.1081 0.219971 26.8601 1.03502 28.0907 2.35165C29.6132 2.05908 31.0732 1.49478 32.3665 0.721546C31.8658 2.28899 30.8021 3.60562 29.4047 4.44151C30.7605 4.29529 32.0745 3.91903 33.2842 3.39661C32.3666 4.73408 31.2194 5.92527 29.9054 6.88667Z" fill="#032E5A"/>
</svg>
