<svg width="30" height="30" viewBox="0 0 30 30" fill="none" xmlns="http://www.w3.org/2000/svg">
<path d="M15.0098 7.19722C10.9266 7.19722 7.63306 10.4973 7.63306 14.5887C7.63306 18.68 10.9266 21.9801 15.0098 21.9801C19.093 21.9801 22.3866 18.68 22.3866 14.5887C22.3866 10.4973 19.093 7.19722 15.0098 7.19722ZM15.0098 19.394C12.3711 19.394 10.214 17.239 10.214 14.5887C10.214 11.9383 12.3647 9.78326 15.0098 9.78326C17.6549 9.78326 19.8057 11.9383 19.8057 14.5887C19.8057 17.239 17.6485 19.394 15.0098 19.394ZM24.4089 6.89487C24.4089 7.85338 23.6385 8.6189 22.6883 8.6189C21.7317 8.6189 20.9677 7.84695 20.9677 6.89487C20.9677 5.9428 21.7381 5.17085 22.6883 5.17085C23.6385 5.17085 24.4089 5.9428 24.4089 6.89487ZM29.2947 8.64463C29.1855 6.33521 28.6591 4.28954 26.9706 2.60411C25.2885 0.918683 23.2469 0.391184 20.942 0.275391C18.5666 0.140299 11.4466 0.140299 9.07117 0.275391C6.77276 0.384751 4.73115 0.912251 3.04265 2.59768C1.35414 4.2831 0.834112 6.32877 0.718549 8.6382C0.583726 11.0184 0.583726 18.1525 0.718549 20.5327C0.827692 22.8421 1.35414 24.8878 3.04265 26.5732C4.73115 28.2586 6.76634 28.7861 9.07117 28.9019C11.4466 29.037 18.5666 29.037 20.942 28.9019C23.2469 28.7926 25.2885 28.2651 26.9706 26.5732C28.6527 24.8878 29.1791 22.8421 29.2947 20.5327C29.4295 18.1525 29.4295 11.0248 29.2947 8.64463ZM26.2258 23.0865C25.7251 24.3474 24.7556 25.3188 23.4908 25.827C21.5969 26.5796 17.1028 26.4059 15.0098 26.4059C12.9168 26.4059 8.41632 26.5732 6.52879 25.827C5.27044 25.3252 4.301 24.3538 3.7938 23.0865C3.04265 21.1888 3.21599 16.6858 3.21599 14.5887C3.21599 12.4915 3.04907 7.98204 3.7938 6.09076C4.29458 4.8299 5.26402 3.85853 6.52879 3.35033C8.42274 2.59768 12.9168 2.77137 15.0098 2.77137C17.1028 2.77137 21.6033 2.60411 23.4908 3.35033C24.7492 3.8521 25.7186 4.82347 26.2258 6.09076C26.977 7.98847 26.8036 12.4915 26.8036 14.5887C26.8036 16.6858 26.977 21.1953 26.2258 23.0865Z" fill="#032E5A"/>
</svg>
